<svg xmlns="http://www.w3.org/2000/svg" xmlns:xlink="http://www.w3.org/1999/xlink" width="500" zoomAndPan="magnify" viewBox="0 0 375 374.999991" height="500" preserveAspectRatio="xMidYMid meet" version="1.0"><defs><clipPath id="e9eb182552"><path d="M 15 15 L 360 15 L 360 360 L 15 360 Z M 15 15 " clip-rule="nonzero"/></clipPath><clipPath id="28dee08597"><path d="M 12.609375 18.75 L 356.054688 12.613281 L 362.191406 356.058594 L 18.746094 362.195312 Z M 12.609375 18.75 " clip-rule="nonzero"/></clipPath><clipPath id="2188780e65"><path d="M 12.609375 18.75 L 356.054688 12.613281 L 362.191406 356.058594 L 18.746094 362.195312 Z M 12.609375 18.75 " clip-rule="nonzero"/></clipPath><clipPath id="90d866755b"><path d="M 12.609375 18.75 L 356.054688 12.613281 L 362.191406 356.058594 L 18.746094 362.195312 Z M 12.609375 18.75 " clip-rule="nonzero"/></clipPath><clipPath id="8fc0485feb"><path d="M 89 75 L 284 75 L 284 136 L 89 136 Z M 89 75 " clip-rule="nonzero"/></clipPath><clipPath id="ba075d7f10"><path d="M 12.609375 18.75 L 356.054688 12.613281 L 362.191406 356.058594 L 18.746094 362.195312 Z M 12.609375 18.75 " clip-rule="nonzero"/></clipPath><clipPath id="564b125e64"><path d="M 12.609375 18.75 L 356.054688 12.613281 L 362.191406 356.058594 L 18.746094 362.195312 Z M 12.609375 18.75 " clip-rule="nonzero"/></clipPath><clipPath id="538fa41535"><path d="M 12.609375 18.75 L 356.054688 12.613281 L 362.191406 356.058594 L 18.746094 362.195312 Z M 12.609375 18.75 " clip-rule="nonzero"/></clipPath><clipPath id="0ce9fcdd88"><path d="M 91 247 L 286 247 L 286 309 L 91 309 Z M 91 247 " clip-rule="nonzero"/></clipPath><clipPath id="3740cc7262"><path d="M 12.609375 18.75 L 356.054688 12.613281 L 362.191406 356.058594 L 18.746094 362.195312 Z M 12.609375 18.75 " clip-rule="nonzero"/></clipPath><clipPath id="dff94f8ab7"><path d="M 12.609375 18.75 L 356.054688 12.613281 L 362.191406 356.058594 L 18.746094 362.195312 Z M 12.609375 18.75 " clip-rule="nonzero"/></clipPath><clipPath id="9d5db2cc5a"><path d="M 12.609375 18.75 L 356.054688 12.613281 L 362.191406 356.058594 L 18.746094 362.195312 Z M 12.609375 18.75 " clip-rule="nonzero"/></clipPath><clipPath id="6100af7115"><path d="M 135 176 L 236 176 L 236 273 L 135 273 Z M 135 176 " clip-rule="nonzero"/></clipPath><clipPath id="6deaf9da86"><path d="M 12.609375 18.75 L 356.054688 12.613281 L 362.191406 356.058594 L 18.746094 362.195312 Z M 12.609375 18.75 " clip-rule="nonzero"/></clipPath><clipPath id="e2952152b7"><path d="M 12.609375 18.75 L 356.054688 12.613281 L 362.191406 356.058594 L 18.746094 362.195312 Z M 12.609375 18.75 " clip-rule="nonzero"/></clipPath><clipPath id="6ed26d5abd"><path d="M 12.609375 18.75 L 356.054688 12.613281 L 362.191406 356.058594 L 18.746094 362.195312 Z M 12.609375 18.75 " clip-rule="nonzero"/></clipPath><clipPath id="f52bc19108"><path d="M 135 160 L 236 160 L 236 201 L 135 201 Z M 135 160 " clip-rule="nonzero"/></clipPath><clipPath id="c7247a29ad"><path d="M 12.609375 18.75 L 356.054688 12.613281 L 362.191406 356.058594 L 18.746094 362.195312 Z M 12.609375 18.75 " clip-rule="nonzero"/></clipPath><clipPath id="66287eea66"><path d="M 12.609375 18.75 L 356.054688 12.613281 L 362.191406 356.058594 L 18.746094 362.195312 Z M 12.609375 18.75 " clip-rule="nonzero"/></clipPath><clipPath id="ee9a7c3adf"><path d="M 12.609375 18.75 L 356.054688 12.613281 L 362.191406 356.058594 L 18.746094 362.195312 Z M 12.609375 18.75 " clip-rule="nonzero"/></clipPath><clipPath id="b7dfe9dd63"><path d="M 227 193 L 274 193 L 274 242 L 227 242 Z M 227 193 " clip-rule="nonzero"/></clipPath><clipPath id="7c193b2770"><path d="M 12.609375 18.75 L 356.054688 12.613281 L 362.191406 356.058594 L 18.746094 362.195312 Z M 12.609375 18.75 " clip-rule="nonzero"/></clipPath><clipPath id="916d6fe2ea"><path d="M 12.609375 18.75 L 356.054688 12.613281 L 362.191406 356.058594 L 18.746094 362.195312 Z M 12.609375 18.75 " clip-rule="nonzero"/></clipPath><clipPath id="93ae2ba5a1"><path d="M 12.609375 18.75 L 356.054688 12.613281 L 362.191406 356.058594 L 18.746094 362.195312 Z M 12.609375 18.75 " clip-rule="nonzero"/></clipPath><clipPath id="97b804f839"><path d="M 135 168 L 236 168 L 236 191 L 135 191 Z M 135 168 " clip-rule="nonzero"/></clipPath><clipPath id="f854a9bf63"><path d="M 12.609375 18.75 L 356.054688 12.613281 L 362.191406 356.058594 L 18.746094 362.195312 Z M 12.609375 18.75 " clip-rule="nonzero"/></clipPath><clipPath id="621744bad2"><path d="M 12.609375 18.75 L 356.054688 12.613281 L 362.191406 356.058594 L 18.746094 362.195312 Z M 12.609375 18.75 " clip-rule="nonzero"/></clipPath><clipPath id="e7e88c4bc7"><path d="M 12.609375 18.75 L 356.054688 12.613281 L 362.191406 356.058594 L 18.746094 362.195312 Z M 12.609375 18.75 " clip-rule="nonzero"/></clipPath><clipPath id="3879f9e469"><path d="M 135 197 L 236 197 L 236 214 L 135 214 Z M 135 197 " clip-rule="nonzero"/></clipPath><clipPath id="701522990c"><path d="M 12.609375 18.75 L 356.054688 12.613281 L 362.191406 356.058594 L 18.746094 362.195312 Z M 12.609375 18.75 " clip-rule="nonzero"/></clipPath><clipPath id="bd0128de4e"><path d="M 12.609375 18.75 L 356.054688 12.613281 L 362.191406 356.058594 L 18.746094 362.195312 Z M 12.609375 18.75 " clip-rule="nonzero"/></clipPath><clipPath id="5fd2bc7463"><path d="M 12.609375 18.75 L 356.054688 12.613281 L 362.191406 356.058594 L 18.746094 362.195312 Z M 12.609375 18.75 " clip-rule="nonzero"/></clipPath><clipPath id="c511e1227e"><path d="M 186 117 L 211 117 L 211 150 L 186 150 Z M 186 117 " clip-rule="nonzero"/></clipPath><clipPath id="cc84305f05"><path d="M 12.609375 18.75 L 356.054688 12.613281 L 362.191406 356.058594 L 18.746094 362.195312 Z M 12.609375 18.75 " clip-rule="nonzero"/></clipPath><clipPath id="104be288c8"><path d="M 12.609375 18.75 L 356.054688 12.613281 L 362.191406 356.058594 L 18.746094 362.195312 Z M 12.609375 18.75 " clip-rule="nonzero"/></clipPath><clipPath id="94d2ca8452"><path d="M 12.609375 18.75 L 356.054688 12.613281 L 362.191406 356.058594 L 18.746094 362.195312 Z M 12.609375 18.75 " clip-rule="nonzero"/></clipPath><clipPath id="9d05179339"><path d="M 158 100 L 188 100 L 188 149 L 158 149 Z M 158 100 " clip-rule="nonzero"/></clipPath><clipPath id="eae5301f1d"><path d="M 12.609375 18.75 L 356.054688 12.613281 L 362.191406 356.058594 L 18.746094 362.195312 Z M 12.609375 18.75 " clip-rule="nonzero"/></clipPath><clipPath id="9690734ea7"><path d="M 12.609375 18.75 L 356.054688 12.613281 L 362.191406 356.058594 L 18.746094 362.195312 Z M 12.609375 18.75 " clip-rule="nonzero"/></clipPath><clipPath id="0a94e1cb36"><path d="M 12.609375 18.75 L 356.054688 12.613281 L 362.191406 356.058594 L 18.746094 362.195312 Z M 12.609375 18.75 " clip-rule="nonzero"/></clipPath><clipPath id="c3c864cd7a"><path d="M 284 172 L 316 172 L 316 207 L 284 207 Z M 284 172 " clip-rule="nonzero"/></clipPath><clipPath id="44e00c749d"><path d="M 12.609375 18.75 L 356.054688 12.613281 L 362.191406 356.058594 L 18.746094 362.195312 Z M 12.609375 18.75 " clip-rule="nonzero"/></clipPath><clipPath id="96951e7587"><path d="M 12.609375 18.75 L 356.054688 12.613281 L 362.191406 356.058594 L 18.746094 362.195312 Z M 12.609375 18.75 " clip-rule="nonzero"/></clipPath><clipPath id="1ed4bb653d"><path d="M 12.609375 18.75 L 356.054688 12.613281 L 362.191406 356.058594 L 18.746094 362.195312 Z M 12.609375 18.75 " clip-rule="nonzero"/></clipPath><clipPath id="311bd41ceb"><path d="M 289 176 L 310 176 L 310 206 L 289 206 Z M 289 176 " clip-rule="nonzero"/></clipPath><clipPath id="c421a64019"><path d="M 12.609375 18.75 L 356.054688 12.613281 L 362.191406 356.058594 L 18.746094 362.195312 Z M 12.609375 18.75 " clip-rule="nonzero"/></clipPath><clipPath id="1e73fd690d"><path d="M 12.609375 18.75 L 356.054688 12.613281 L 362.191406 356.058594 L 18.746094 362.195312 Z M 12.609375 18.75 " clip-rule="nonzero"/></clipPath><clipPath id="4435ee7df4"><path d="M 12.609375 18.75 L 356.054688 12.613281 L 362.191406 356.058594 L 18.746094 362.195312 Z M 12.609375 18.75 " clip-rule="nonzero"/></clipPath><clipPath id="3ea7d0535a"><path d="M 285 141 L 307 141 L 307 178 L 285 178 Z M 285 141 " clip-rule="nonzero"/></clipPath><clipPath id="265751dd22"><path d="M 12.609375 18.75 L 356.054688 12.613281 L 362.191406 356.058594 L 18.746094 362.195312 Z M 12.609375 18.75 " clip-rule="nonzero"/></clipPath><clipPath id="17b736e2a8"><path d="M 12.609375 18.75 L 356.054688 12.613281 L 362.191406 356.058594 L 18.746094 362.195312 Z M 12.609375 18.75 " clip-rule="nonzero"/></clipPath><clipPath id="a03b856d99"><path d="M 12.609375 18.75 L 356.054688 12.613281 L 362.191406 356.058594 L 18.746094 362.195312 Z M 12.609375 18.75 " clip-rule="nonzero"/></clipPath><clipPath id="7382e4caa2"><path d="M 286 201 L 309 201 L 309 239 L 286 239 Z M 286 201 " clip-rule="nonzero"/></clipPath><clipPath id="ae94dcdba9"><path d="M 12.609375 18.75 L 356.054688 12.613281 L 362.191406 356.058594 L 18.746094 362.195312 Z M 12.609375 18.75 " clip-rule="nonzero"/></clipPath><clipPath id="861751125f"><path d="M 12.609375 18.75 L 356.054688 12.613281 L 362.191406 356.058594 L 18.746094 362.195312 Z M 12.609375 18.75 " clip-rule="nonzero"/></clipPath><clipPath id="90c4d59cb1"><path d="M 12.609375 18.75 L 356.054688 12.613281 L 362.191406 356.058594 L 18.746094 362.195312 Z M 12.609375 18.75 " clip-rule="nonzero"/></clipPath><clipPath id="10f7efcf8d"><path d="M 61 176 L 93 176 L 93 211 L 61 211 Z M 61 176 " clip-rule="nonzero"/></clipPath><clipPath id="449a0b3ae5"><path d="M 12.609375 18.75 L 356.054688 12.613281 L 362.191406 356.058594 L 18.746094 362.195312 Z M 12.609375 18.75 " clip-rule="nonzero"/></clipPath><clipPath id="0428a032fe"><path d="M 12.609375 18.75 L 356.054688 12.613281 L 362.191406 356.058594 L 18.746094 362.195312 Z M 12.609375 18.75 " clip-rule="nonzero"/></clipPath><clipPath id="8b4e3efb83"><path d="M 12.609375 18.75 L 356.054688 12.613281 L 362.191406 356.058594 L 18.746094 362.195312 Z M 12.609375 18.75 " clip-rule="nonzero"/></clipPath><clipPath id="504bcd9fb4"><path d="M 68 180 L 88 180 L 88 210 L 68 210 Z M 68 180 " clip-rule="nonzero"/></clipPath><clipPath id="ebac6983f1"><path d="M 12.609375 18.75 L 356.054688 12.613281 L 362.191406 356.058594 L 18.746094 362.195312 Z M 12.609375 18.75 " clip-rule="nonzero"/></clipPath><clipPath id="39942532a3"><path d="M 12.609375 18.75 L 356.054688 12.613281 L 362.191406 356.058594 L 18.746094 362.195312 Z M 12.609375 18.75 " clip-rule="nonzero"/></clipPath><clipPath id="0ceac5dc3f"><path d="M 12.609375 18.75 L 356.054688 12.613281 L 362.191406 356.058594 L 18.746094 362.195312 Z M 12.609375 18.75 " clip-rule="nonzero"/></clipPath><clipPath id="7a57afa86e"><path d="M 69 144 L 91 144 L 91 182 L 69 182 Z M 69 144 " clip-rule="nonzero"/></clipPath><clipPath id="9a3117cb03"><path d="M 12.609375 18.75 L 356.054688 12.613281 L 362.191406 356.058594 L 18.746094 362.195312 Z M 12.609375 18.75 " clip-rule="nonzero"/></clipPath><clipPath id="339f80670c"><path d="M 12.609375 18.75 L 356.054688 12.613281 L 362.191406 356.058594 L 18.746094 362.195312 Z M 12.609375 18.75 " clip-rule="nonzero"/></clipPath><clipPath id="b1d14a057c"><path d="M 12.609375 18.75 L 356.054688 12.613281 L 362.191406 356.058594 L 18.746094 362.195312 Z M 12.609375 18.75 " clip-rule="nonzero"/></clipPath><clipPath id="7a48a7d189"><path d="M 70 205 L 93 205 L 93 243 L 70 243 Z M 70 205 " clip-rule="nonzero"/></clipPath><clipPath id="df6dfbc372"><path d="M 12.609375 18.75 L 356.054688 12.613281 L 362.191406 356.058594 L 18.746094 362.195312 Z M 12.609375 18.75 " clip-rule="nonzero"/></clipPath><clipPath id="70e517bac8"><path d="M 12.609375 18.75 L 356.054688 12.613281 L 362.191406 356.058594 L 18.746094 362.195312 Z M 12.609375 18.75 " clip-rule="nonzero"/></clipPath><clipPath id="a8a48b6885"><path d="M 12.609375 18.75 L 356.054688 12.613281 L 362.191406 356.058594 L 18.746094 362.195312 Z M 12.609375 18.75 " clip-rule="nonzero"/></clipPath><clipPath id="8fbe23032c"><path d="M 291 141 L 293 141 L 293 142 L 291 142 Z M 291 141 " clip-rule="nonzero"/></clipPath><clipPath id="fc9dcf3dc3"><path d="M 12.609375 18.75 L 356.054688 12.613281 L 362.191406 356.058594 L 18.746094 362.195312 Z M 12.609375 18.75 " clip-rule="nonzero"/></clipPath><clipPath id="b87ff6a8d8"><path d="M 12.609375 18.75 L 356.054688 12.613281 L 362.191406 356.058594 L 18.746094 362.195312 Z M 12.609375 18.75 " clip-rule="nonzero"/></clipPath><clipPath id="46f20c252c"><path d="M 12.609375 18.75 L 356.054688 12.613281 L 362.191406 356.058594 L 18.746094 362.195312 Z M 12.609375 18.75 " clip-rule="nonzero"/></clipPath></defs><g clip-path="url(#e9eb182552)"><g clip-path="url(#28dee08597)"><g clip-path="url(#2188780e65)"><g clip-path="url(#90d866755b)"><path fill="#2f3335" d="M 306.644531 63.804688 C 273.636719 31.953125 230.191406 14.863281 184.324219 15.679688 C 138.457031 16.5 95.652344 35.132812 63.800781 68.144531 C 31.949219 101.15625 14.859375 144.597656 15.679688 190.464844 C 16.496094 236.332031 35.128906 279.136719 68.140625 310.988281 C 101.152344 342.839844 144.59375 359.933594 190.460938 359.113281 C 236.328125 358.292969 279.132812 339.660156 310.984375 306.648438 C 342.835938 273.640625 359.929688 230.195312 359.109375 184.328125 C 358.289062 138.460938 339.65625 95.65625 306.644531 63.804688 Z M 190.359375 353.335938 C 98.863281 354.972656 23.089844 281.859375 21.453125 190.363281 C 19.820312 98.867188 92.933594 23.09375 184.429688 21.457031 C 275.925781 19.824219 351.699219 92.933594 353.332031 184.433594 C 354.96875 275.929688 281.855469 351.703125 190.359375 353.335938 Z M 190.359375 353.335938 " fill-opacity="1" fill-rule="nonzero"/></g></g></g></g><g clip-path="url(#8fc0485feb)"><g clip-path="url(#ba075d7f10)"><g clip-path="url(#564b125e64)"><g clip-path="url(#538fa41535)"><path fill="#2f3335" d="M 281.761719 132.1875 C 281.296875 132.46875 280.792969 132.617188 280.289062 132.625 C 279.304688 132.644531 278.335938 132.15625 277.777344 131.261719 C 258.082031 99.613281 222.71875 80.371094 185.492188 81.035156 C 148.265625 81.699219 113.613281 102.195312 95.058594 134.527344 C 94.269531 135.90625 92.5 136.386719 91.113281 135.59375 C 89.734375 134.796875 89.257812 133.035156 90.046875 131.648438 C 99.539062 115.113281 113.175781 101.167969 129.488281 91.316406 C 146.308594 81.164062 165.636719 75.613281 185.390625 75.257812 C 205.144531 74.90625 224.65625 79.765625 241.828125 89.308594 C 258.480469 98.574219 272.609375 112.027344 282.683594 128.207031 C 283.527344 129.5625 283.109375 131.347656 281.761719 132.1875 Z M 281.761719 132.1875 " fill-opacity="1" fill-rule="nonzero"/></g></g></g></g><g clip-path="url(#0ce9fcdd88)"><g clip-path="url(#3740cc7262)"><g clip-path="url(#dff94f8ab7)"><g clip-path="url(#9d5db2cc5a)"><path fill="#2f3335" d="M 284.890625 251.679688 C 275.402344 268.214844 261.761719 282.15625 245.449219 292.011719 C 228.632812 302.164062 209.304688 307.722656 189.550781 308.074219 C 169.796875 308.429688 150.28125 303.5625 133.109375 294.019531 C 116.457031 284.753906 102.328125 271.304688 92.253906 255.121094 C 91.414062 253.765625 91.828125 251.988281 93.179688 251.140625 C 94.535156 250.300781 96.320312 250.714844 97.160156 252.066406 C 116.855469 283.714844 152.222656 302.964844 189.445312 302.300781 C 226.671875 301.632812 261.324219 281.132812 279.878906 248.800781 C 280.671875 247.421875 282.4375 246.941406 283.824219 247.734375 C 285.203125 248.53125 285.683594 250.292969 284.890625 251.679688 Z M 284.890625 251.679688 " fill-opacity="1" fill-rule="nonzero"/></g></g></g></g><g clip-path="url(#6100af7115)"><g clip-path="url(#6deaf9da86)"><g clip-path="url(#e2952152b7)"><g clip-path="url(#6ed26d5abd)"><path fill="#2f3335" d="M 235.179688 179.644531 L 235.9375 222.019531 C 236.023438 226.734375 235.445312 231.300781 234.296875 235.648438 C 233.777344 237.636719 233.132812 239.574219 232.371094 241.460938 C 225.109375 259.515625 207.574219 272.445312 186.925781 272.8125 C 159.410156 273.304688 136.625 251.316406 136.132812 223.800781 L 135.375 181.429688 C 135.371094 181.328125 135.378906 181.21875 135.382812 181.117188 C 135.414062 180.808594 135.496094 180.496094 135.625 180.195312 C 135.632812 180.191406 135.632812 180.175781 135.640625 180.167969 C 135.695312 180.042969 135.757812 179.925781 135.828125 179.816406 C 135.828125 179.816406 135.835938 179.8125 135.835938 179.804688 C 135.90625 179.695312 135.984375 179.589844 136.070312 179.496094 C 136.078125 179.488281 136.082031 179.480469 136.082031 179.480469 C 136.175781 179.378906 136.269531 179.28125 136.367188 179.203125 L 136.386719 179.179688 C 136.472656 179.105469 136.566406 179.03125 136.667969 178.972656 C 136.6875 178.957031 136.703125 178.949219 136.714844 178.941406 C 136.824219 178.867188 136.929688 178.808594 137.039062 178.761719 C 137.160156 178.703125 137.289062 178.65625 137.417969 178.621094 C 137.535156 178.582031 137.65625 178.550781 137.777344 178.535156 C 137.800781 178.527344 137.820312 178.527344 137.835938 178.527344 C 137.957031 178.5 138.089844 178.492188 138.210938 178.488281 C 138.535156 178.484375 138.859375 178.527344 139.179688 178.636719 C 139.261719 178.667969 139.339844 178.695312 139.414062 178.734375 C 139.421875 178.734375 139.4375 178.734375 139.441406 178.742188 C 139.464844 178.75 139.480469 178.761719 139.5 178.769531 C 140.460938 179.222656 141.128906 180.191406 141.148438 181.324219 L 141.90625 223.699219 C 142.34375 248.03125 162.492188 267.472656 186.824219 267.039062 C 211.152344 266.601562 230.597656 246.453125 230.160156 222.121094 L 229.40625 179.75 C 229.375 178.152344 230.644531 176.839844 232.242188 176.808594 C 233.035156 176.796875 233.761719 177.105469 234.300781 177.617188 C 234.371094 177.6875 234.4375 177.757812 234.5 177.832031 C 234.566406 177.910156 234.625 177.988281 234.675781 178.066406 C 234.734375 178.144531 234.78125 178.222656 234.824219 178.308594 C 234.867188 178.378906 234.898438 178.453125 234.929688 178.523438 C 234.972656 178.609375 235.003906 178.695312 235.035156 178.789062 C 235.066406 178.875 235.089844 178.96875 235.113281 179.0625 C 235.136719 179.164062 235.152344 179.257812 235.160156 179.351562 C 235.167969 179.449219 235.179688 179.550781 235.179688 179.644531 Z M 235.179688 179.644531 " fill-opacity="1" fill-rule="nonzero"/></g></g></g></g><g clip-path="url(#f52bc19108)"><g clip-path="url(#c7247a29ad)"><g clip-path="url(#66287eea66)"><g clip-path="url(#ee9a7c3adf)"><path fill="#2f3335" d="M 235.160156 179.351562 C 234.550781 166.738281 208.929688 160.390625 184.925781 160.820312 C 160.925781 161.25 135.5625 168.503906 135.382812 181.117188 C 135.378906 181.21875 135.371094 181.328125 135.375 181.429688 C 135.441406 185.125 137.640625 188.300781 141.320312 190.921875 C 150.386719 197.390625 168.425781 200.5625 185.628906 200.253906 C 202.835938 199.949219 220.75 196.132812 229.578125 189.34375 C 233.160156 186.59375 235.246094 183.34375 235.179688 179.644531 C 235.179688 179.550781 235.167969 179.449219 235.160156 179.351562 Z M 185.527344 194.480469 C 167.273438 194.804688 153.660156 191.429688 146.597656 187.417969 C 143.078125 185.414062 141.183594 183.261719 141.148438 181.324219 C 141.140625 180.769531 141.28125 180.195312 141.574219 179.605469 C 144.304688 173.984375 160.277344 167.039062 185.027344 166.597656 C 194.183594 166.433594 202.171875 167.199219 208.75 168.511719 C 221.820312 171.125 229.335938 175.878906 229.40625 179.75 C 229.410156 180.109375 229.351562 180.488281 229.230469 180.871094 C 227.390625 186.59375 211.15625 194.019531 185.527344 194.480469 Z M 185.527344 194.480469 " fill-opacity="1" fill-rule="nonzero"/></g></g></g></g><g clip-path="url(#b7dfe9dd63)"><g clip-path="url(#7c193b2770)"><g clip-path="url(#916d6fe2ea)"><g clip-path="url(#93ae2ba5a1)"><path fill="#2f3335" d="M 273.703125 216.816406 C 273.9375 229.992188 263.410156 240.90625 250.226562 241.140625 L 230.421875 241.496094 C 228.824219 241.523438 227.511719 240.253906 227.480469 238.65625 C 227.453125 237.0625 228.722656 235.746094 230.316406 235.71875 L 250.121094 235.363281 C 260.121094 235.1875 268.105469 226.910156 267.925781 216.917969 C 267.75 206.925781 259.472656 198.933594 249.472656 199.113281 L 232.644531 199.414062 C 231.867188 199.429688 231.152344 199.132812 230.625 198.636719 C 230.074219 198.125 229.71875 197.394531 229.707031 196.578125 C 229.675781 194.988281 230.945312 193.667969 232.542969 193.640625 L 249.371094 193.339844 C 262.554688 193.101562 273.46875 203.632812 273.703125 216.816406 Z M 273.703125 216.816406 " fill-opacity="1" fill-rule="nonzero"/></g></g></g></g><g clip-path="url(#97b804f839)"><g clip-path="url(#f854a9bf63)"><g clip-path="url(#621744bad2)"><g clip-path="url(#e7e88c4bc7)"><path fill="#2f3335" d="M 235.179688 179.644531 C 235.195312 180.390625 234.925781 181.132812 234.371094 181.703125 C 233.265625 182.851562 231.433594 182.882812 230.285156 181.777344 C 230.027344 181.527344 229.742188 181.28125 229.425781 181.027344 C 229.367188 180.96875 229.296875 180.921875 229.230469 180.871094 C 225.667969 178.054688 218.9375 175.0625 211.109375 174.40625 C 204.398438 173.839844 194.832031 174.796875 187.355469 182.542969 C 181.789062 188.304688 174.179688 190.3125 166.554688 190.449219 C 159.328125 190.578125 152.09375 189.03125 146.597656 187.417969 C 144.527344 186.8125 142.710938 186.203125 141.226562 185.65625 C 138.859375 184.804688 137.359375 184.136719 137.082031 184.011719 C 136.027344 183.539062 135.394531 182.511719 135.375 181.429688 C 135.371094 181.328125 135.378906 181.21875 135.382812 181.117188 C 135.414062 180.808594 135.496094 180.496094 135.625 180.195312 C 135.632812 180.191406 135.632812 180.175781 135.640625 180.167969 C 135.695312 180.042969 135.757812 179.925781 135.828125 179.816406 C 135.828125 179.816406 135.835938 179.8125 135.835938 179.804688 C 135.90625 179.695312 135.984375 179.589844 136.070312 179.496094 C 136.078125 179.488281 136.082031 179.480469 136.082031 179.480469 C 136.175781 179.378906 136.269531 179.28125 136.367188 179.203125 L 136.386719 179.179688 C 136.472656 179.105469 136.566406 179.03125 136.667969 178.972656 C 136.6875 178.957031 136.703125 178.949219 136.714844 178.941406 C 136.824219 178.867188 136.929688 178.808594 137.039062 178.761719 C 137.160156 178.703125 137.289062 178.65625 137.417969 178.621094 C 137.535156 178.582031 137.65625 178.550781 137.777344 178.535156 C 137.800781 178.527344 137.820312 178.527344 137.835938 178.527344 C 137.957031 178.5 138.085938 178.492188 138.210938 178.488281 C 138.535156 178.484375 138.859375 178.527344 139.179688 178.636719 C 139.261719 178.667969 139.339844 178.695312 139.414062 178.734375 C 139.421875 178.734375 139.433594 178.734375 139.441406 178.742188 C 139.464844 178.75 139.480469 178.761719 139.5 178.769531 C 139.710938 178.859375 140.441406 179.171875 141.574219 179.605469 C 145.964844 181.289062 156.480469 184.851562 166.507812 184.671875 C 172.804688 184.558594 178.90625 182.976562 183.199219 178.53125 C 189.65625 171.84375 198.652344 168.332031 208.75 168.511719 C 209.691406 168.523438 210.636719 168.574219 211.589844 168.648438 C 220.511719 169.394531 229.425781 172.917969 234.300781 177.617188 C 234.371094 177.6875 234.4375 177.757812 234.5 177.832031 C 234.566406 177.910156 234.625 177.988281 234.675781 178.066406 C 234.734375 178.144531 234.78125 178.222656 234.824219 178.308594 C 234.867188 178.378906 234.898438 178.453125 234.929688 178.523438 C 234.972656 178.609375 235.003906 178.695312 235.035156 178.789062 C 235.066406 178.875 235.089844 178.96875 235.113281 179.0625 C 235.136719 179.164062 235.152344 179.257812 235.160156 179.351562 C 235.167969 179.449219 235.179688 179.550781 235.179688 179.644531 Z M 235.179688 179.644531 " fill-opacity="1" fill-rule="nonzero"/></g></g></g></g><g clip-path="url(#3879f9e469)"><g clip-path="url(#701522990c)"><g clip-path="url(#bd0128de4e)"><g clip-path="url(#5fd2bc7463)"><path fill="#2f3335" d="M 188.238281 213.640625 C 180.925781 213.773438 174.207031 213.285156 168.464844 212.566406 C 150.414062 210.300781 138.09375 205.4375 137.578125 205.230469 C 136.09375 204.636719 135.375 202.957031 135.964844 201.472656 C 136.550781 199.992188 138.234375 199.273438 139.710938 199.863281 C 140.191406 200.054688 188.242188 218.746094 231.433594 198.253906 C 232.871094 197.570312 234.59375 198.179688 235.277344 199.621094 C 235.960938 201.058594 235.347656 202.78125 233.910156 203.464844 C 218.28125 210.894531 202.179688 213.390625 188.238281 213.640625 Z M 188.238281 213.640625 " fill-opacity="1" fill-rule="nonzero"/></g></g></g></g><g clip-path="url(#c511e1227e)"><g clip-path="url(#cc84305f05)"><g clip-path="url(#104be288c8)"><g clip-path="url(#94d2ca8452)"><path fill="#2f3335" d="M 193.113281 149.054688 C 192.65625 149.34375 192.148438 149.484375 191.640625 149.492188 C 190.660156 149.507812 189.699219 149.027344 189.140625 148.140625 C 188.292969 146.792969 188.703125 145.007812 190.050781 144.160156 C 196.25 140.273438 204.8125 132.824219 204.445312 128.433594 C 204.207031 125.519531 201.5625 123.589844 199.078125 123.179688 C 197.644531 122.945312 194.105469 122.886719 192.140625 127.417969 C 191.511719 128.882812 189.8125 129.554688 188.347656 128.917969 C 186.878906 128.285156 186.207031 126.585938 186.84375 125.125 C 189.765625 118.371094 195.5625 116.75 200.015625 117.476562 C 205.582031 118.390625 209.765625 122.699219 210.207031 127.957031 C 210.980469 137.367188 196.105469 147.179688 193.113281 149.054688 Z M 193.113281 149.054688 " fill-opacity="1" fill-rule="nonzero"/></g></g></g></g><g clip-path="url(#9d05179339)"><g clip-path="url(#eae5301f1d)"><g clip-path="url(#9690734ea7)"><g clip-path="url(#0a94e1cb36)"><path fill="#2f3335" d="M 185.429688 117.523438 C 183.882812 117.933594 182.308594 117.023438 181.890625 115.476562 C 179.910156 108.074219 175.375 105.648438 171.796875 105.855469 C 168.5 106.039062 164.835938 108.449219 164.085938 113.433594 C 162.738281 122.347656 176.226562 138.089844 181.539062 143.402344 C 182.667969 144.53125 182.667969 146.359375 181.539062 147.492188 C 180.992188 148.042969 180.265625 148.324219 179.550781 148.335938 C 178.792969 148.347656 178.03125 148.066406 177.457031 147.492188 C 175.289062 145.328125 156.351562 125.949219 158.375 112.574219 C 159.425781 105.59375 164.816406 100.457031 171.476562 100.085938 C 177.046875 99.769531 184.589844 103.222656 187.476562 113.984375 C 187.886719 115.527344 186.96875 117.113281 185.429688 117.523438 Z M 185.429688 117.523438 " fill-opacity="1" fill-rule="nonzero"/></g></g></g></g><g clip-path="url(#c3c864cd7a)"><g clip-path="url(#44e00c749d)"><g clip-path="url(#96951e7587)"><g clip-path="url(#1ed4bb653d)"><path fill="#2f3335" d="M 309.480469 175.625 C 307.671875 174.175781 305.640625 173.230469 303.53125 172.828125 C 301.902344 172.511719 300.21875 172.511719 298.546875 172.851562 C 296.957031 173.167969 295.445312 173.703125 294.035156 174.417969 C 288.230469 177.363281 284.261719 183.355469 284.292969 189.832031 L 284.292969 189.855469 C 284.363281 196.339844 288.523438 202.257812 294.515625 205.0625 C 295.953125 205.742188 297.5 206.234375 299.113281 206.519531 C 299.96875 206.667969 300.824219 206.734375 301.660156 206.71875 C 302.527344 206.703125 303.375 206.601562 304.210938 206.414062 C 304.996094 206.246094 305.769531 205.996094 306.515625 205.679688 C 307.125 205.414062 307.726562 205.109375 308.304688 204.75 C 308.949219 204.347656 309.566406 203.898438 310.164062 203.386719 C 313.941406 200.128906 316.03125 195.042969 315.890625 189.433594 C 315.753906 183.789062 313.414062 178.753906 309.480469 175.625 Z M 308.34375 196.71875 C 307.800781 197.59375 307.152344 198.363281 306.398438 199.015625 C 305.445312 199.832031 304.371094 200.402344 303.242188 200.703125 C 302.230469 200.964844 301.167969 201.007812 300.109375 200.824219 C 294.539062 199.863281 290.132812 195.015625 290.070312 189.800781 C 290.058594 188.046875 290.535156 186.320312 291.367188 184.757812 C 292.308594 182.988281 293.71875 181.429688 295.433594 180.296875 C 296.710938 179.441406 298.140625 178.824219 299.683594 178.515625 C 301.828125 178.078125 304.027344 178.660156 305.878906 180.136719 C 308.472656 182.207031 310.015625 185.644531 310.113281 189.582031 C 310.183594 192.265625 309.550781 194.746094 308.34375 196.71875 Z M 308.34375 196.71875 " fill-opacity="1" fill-rule="nonzero"/></g></g></g></g><g clip-path="url(#311bd41ceb)"><g clip-path="url(#c421a64019)"><g clip-path="url(#1e73fd690d)"><g clip-path="url(#4435ee7df4)"><path fill="#2f3335" d="M 308.34375 196.71875 C 307.445312 193.746094 305.546875 190.339844 301.863281 187.386719 C 298.011719 184.386719 296.222656 181.8125 295.433594 180.296875 C 295.050781 179.574219 294.890625 179.085938 294.84375 178.910156 C 294.84375 178.941406 294.84375 178.960938 294.851562 178.984375 C 294.84375 178.957031 294.84375 178.933594 294.835938 178.90625 L 294.835938 178.882812 C 294.828125 178.875 294.828125 178.867188 294.828125 178.863281 C 294.585938 177.414062 293.257812 176.363281 291.78125 176.46875 C 290.1875 176.574219 288.992188 177.953125 289.097656 179.550781 C 289.105469 179.585938 289.28125 181.640625 291.367188 184.757812 C 292.710938 186.785156 294.863281 189.253906 298.28125 191.914062 C 302.304688 195.152344 303.121094 198.777344 303.242188 200.703125 C 303.285156 201.386719 303.242188 201.859375 303.222656 202.023438 C 303.136719 202.378906 303.113281 202.757812 303.171875 203.136719 L 303.503906 205.296875 L 306.515625 205.679688 C 307.125 205.414062 307.726562 205.109375 308.304688 204.75 L 308.691406 203.828125 C 309.09375 202.871094 309.355469 200.074219 308.34375 196.71875 Z M 303.25 201.921875 C 303.378906 201.40625 303.6875 200.902344 304.132812 200.519531 C 303.714844 200.890625 303.40625 201.378906 303.25 201.921875 Z M 303.25 201.921875 " fill-opacity="1" fill-rule="nonzero"/></g></g></g></g><g clip-path="url(#3ea7d0535a)"><g clip-path="url(#265751dd22)"><g clip-path="url(#17b736e2a8)"><g clip-path="url(#a03b856d99)"><path fill="#2f3335" d="M 306.257812 155.632812 L 306.25 155.625 C 303.691406 145.714844 294.324219 141.757812 292.039062 141.203125 C 292.03125 141.207031 292.03125 141.207031 292.023438 141.199219 C 291.953125 141.183594 291.886719 141.171875 291.828125 141.160156 L 291.808594 141.160156 C 291.726562 141.136719 291.664062 141.125 291.589844 141.121094 C 290.902344 141 290.554688 141.042969 290.46875 141.058594 C 290.457031 141.058594 290.449219 141.058594 290.449219 141.058594 C 289.839844 141.289062 289.394531 141.9375 289.183594 142.304688 C 289.101562 142.449219 289.058594 142.550781 289.058594 142.550781 C 288.488281 143.695312 287.785156 145.195312 287.375 146.4375 C 287.320312 146.589844 287.269531 146.742188 287.230469 146.886719 C 285.285156 153.175781 284.800781 158.4375 285.792969 162.585938 C 286.832031 166.734375 289.597656 170.707031 294.035156 174.417969 C 294.707031 175 295.425781 175.566406 296.179688 176.121094 L 296.210938 176.570312 L 299.527344 177.941406 L 300.886719 176.765625 C 301.207031 176.488281 302.335938 175.050781 303.53125 172.828125 C 305.664062 168.859375 307.996094 162.40625 306.257812 155.632812 Z M 291.40625 161.214844 C 290.855469 158.914062 290.738281 154.785156 292.980469 147.847656 C 294.242188 148.53125 295.835938 149.585938 297.277344 151.09375 C 298.722656 152.605469 300.003906 154.566406 300.65625 157.078125 C 302.023438 162.390625 299.835938 167.601562 298.261719 170.429688 C 293.597656 166.664062 291.945312 163.378906 291.40625 161.214844 Z M 291.40625 161.214844 " fill-opacity="1" fill-rule="nonzero"/></g></g></g></g><g clip-path="url(#7382e4caa2)"><g clip-path="url(#ae94dcdba9)"><g clip-path="url(#861751125f)"><g clip-path="url(#90c4d59cb1)"><path fill="#2f3335" d="M 304.210938 206.414062 C 303.972656 206.011719 303.734375 205.640625 303.503906 205.296875 C 302.4375 203.679688 301.53125 202.65625 301.25 202.449219 L 299.757812 201.34375 L 296.511719 203.113281 L 296.53125 203.414062 C 295.824219 203.960938 295.15625 204.507812 294.515625 205.0625 C 290.136719 208.894531 287.449219 212.921875 286.503906 217.078125 C 285.53125 221.574219 286.449219 227.363281 289.234375 234.320312 C 289.234375 234.332031 289.242188 234.347656 289.246094 234.363281 C 289.261719 234.398438 289.277344 234.433594 289.292969 234.46875 C 289.59375 235.15625 290.886719 237.921875 292.789062 238.503906 L 292.796875 238.503906 C 292.847656 238.507812 292.898438 238.507812 292.953125 238.507812 C 293.214844 238.5 293.503906 238.46875 293.804688 238.382812 C 295.300781 237.988281 298.28125 236.683594 301.140625 234.28125 C 304 231.882812 306.742188 228.371094 307.738281 223.574219 C 309.167969 216.6875 306.546875 210.328125 304.210938 206.414062 Z M 302.085938 222.398438 C 301 227.609375 296.992188 230.503906 294.460938 231.847656 C 291.691406 224.800781 291.644531 220.617188 292.144531 218.328125 C 292.640625 216.128906 294.25 212.800781 298.96875 208.875 C 300.777344 211.804688 303.183594 217.121094 302.085938 222.398438 Z M 302.085938 222.398438 " fill-opacity="1" fill-rule="nonzero"/></g></g></g></g><g clip-path="url(#10f7efcf8d)"><g clip-path="url(#449a0b3ae5)"><g clip-path="url(#0428a032fe)"><g clip-path="url(#8b4e3efb83)"><path fill="#2f3335" d="M 67.265625 179.953125 C 69.023438 178.441406 71.019531 177.421875 73.113281 176.945312 C 74.730469 176.570312 76.410156 176.511719 78.09375 176.789062 C 79.691406 177.050781 81.226562 177.527344 82.660156 178.195312 C 88.566406 180.929688 92.742188 186.777344 92.945312 193.25 L 92.945312 193.273438 C 93.105469 199.757812 89.164062 205.820312 83.273438 208.835938 C 81.863281 209.570312 80.335938 210.117188 78.730469 210.457031 C 77.882812 210.636719 77.03125 210.730469 76.191406 210.746094 C 75.328125 210.761719 74.472656 210.691406 73.632812 210.53125 C 72.84375 210.394531 72.058594 210.171875 71.304688 209.882812 C 70.683594 209.640625 70.074219 209.355469 69.480469 209.019531 C 68.824219 208.640625 68.1875 208.210938 67.574219 207.722656 C 63.683594 204.601562 61.414062 199.59375 61.355469 193.980469 C 61.289062 188.335938 63.445312 183.21875 67.265625 179.953125 Z M 69.15625 200.992188 C 69.730469 201.847656 70.40625 202.59375 71.183594 203.21875 C 72.164062 204 73.257812 204.53125 74.398438 204.792969 C 75.417969 205.019531 76.480469 205.023438 77.53125 204.800781 C 83.0625 203.640625 87.292969 198.640625 87.171875 193.425781 C 87.117188 191.671875 86.582031 189.964844 85.695312 188.433594 C 84.691406 186.695312 83.226562 185.191406 81.472656 184.117188 C 80.167969 183.3125 78.710938 182.746094 77.160156 182.492188 C 75.003906 182.132812 72.828125 182.792969 71.027344 184.335938 C 68.507812 186.496094 67.089844 189.988281 67.132812 193.921875 C 67.160156 196.609375 67.882812 199.066406 69.15625 200.992188 Z M 69.15625 200.992188 " fill-opacity="1" fill-rule="nonzero"/></g></g></g></g><g clip-path="url(#504bcd9fb4)"><g clip-path="url(#ebac6983f1)"><g clip-path="url(#39942532a3)"><g clip-path="url(#0ceac5dc3f)"><path fill="#2f3335" d="M 69.15625 200.992188 C 69.949219 197.988281 71.722656 194.519531 75.300781 191.4375 C 79.042969 188.300781 80.734375 185.664062 81.472656 184.117188 C 81.828125 183.382812 81.972656 182.890625 82.011719 182.714844 C 82.011719 182.742188 82.011719 182.765625 82.003906 182.789062 C 82.011719 182.757812 82.011719 182.738281 82.019531 182.707031 L 82.019531 182.6875 C 82.023438 182.679688 82.023438 182.671875 82.023438 182.664062 C 82.214844 181.210938 83.503906 180.109375 84.984375 180.164062 C 86.582031 180.214844 87.828125 181.550781 87.773438 183.148438 C 87.769531 183.183594 87.667969 185.242188 85.695312 188.433594 C 84.425781 190.507812 82.363281 193.050781 79.039062 195.832031 C 75.136719 199.210938 74.449219 202.863281 74.398438 204.792969 C 74.378906 205.476562 74.4375 205.945312 74.464844 206.113281 C 74.5625 206.464844 74.597656 206.839844 74.554688 207.222656 L 74.296875 209.394531 L 71.304688 209.882812 C 70.683594 209.640625 70.074219 209.355469 69.480469 209.019531 L 69.0625 208.109375 C 68.625 207.171875 68.265625 204.382812 69.15625 200.992188 Z M 74.433594 206.011719 C 74.285156 205.5 73.960938 205.007812 73.5 204.640625 C 73.929688 204.996094 74.257812 205.472656 74.433594 206.011719 Z M 74.433594 206.011719 " fill-opacity="1" fill-rule="nonzero"/></g></g></g></g><g clip-path="url(#7a57afa86e)"><g clip-path="url(#9a3117cb03)"><g clip-path="url(#339f80670c)"><g clip-path="url(#b1d14a057c)"><path fill="#2f3335" d="M 69.773438 159.859375 L 69.78125 159.851562 C 71.984375 149.851562 81.203125 145.566406 83.46875 144.933594 C 83.472656 144.933594 83.472656 144.933594 83.480469 144.925781 C 83.554688 144.910156 83.617188 144.894531 83.675781 144.878906 L 83.695312 144.878906 C 83.777344 144.855469 83.839844 144.839844 83.914062 144.832031 C 84.597656 144.6875 84.945312 144.71875 85.03125 144.730469 C 85.046875 144.730469 85.050781 144.730469 85.050781 144.730469 C 85.667969 144.9375 86.136719 145.570312 86.359375 145.925781 C 86.449219 146.070312 86.492188 146.171875 86.492188 146.171875 C 87.105469 147.292969 87.863281 148.769531 88.316406 149.996094 C 88.378906 150.144531 88.429688 150.296875 88.476562 150.441406 C 90.644531 156.65625 91.316406 161.894531 90.476562 166.074219 C 89.582031 170.257812 86.960938 174.328125 82.660156 178.195312 C 82.007812 178.800781 81.308594 179.390625 80.574219 179.976562 L 80.5625 180.421875 L 77.296875 181.910156 L 75.894531 180.789062 C 75.566406 180.519531 74.386719 179.125 73.113281 176.945312 C 70.839844 173.054688 68.277344 166.6875 69.773438 159.859375 Z M 84.8125 164.90625 C 85.285156 162.585938 85.253906 158.457031 82.761719 151.601562 C 81.527344 152.332031 79.972656 153.445312 78.585938 155 C 77.195312 156.5625 75.984375 158.570312 75.421875 161.101562 C 74.246094 166.460938 76.621094 171.589844 78.292969 174.359375 C 82.816406 170.429688 84.355469 167.089844 84.8125 164.90625 Z M 84.8125 164.90625 " fill-opacity="1" fill-rule="nonzero"/></g></g></g></g><g clip-path="url(#7a48a7d189)"><g clip-path="url(#df6dfbc372)"><g clip-path="url(#70e517bac8)"><g clip-path="url(#a8a48b6885)"><path fill="#2f3335" d="M 73.632812 210.53125 C 73.855469 210.125 74.082031 209.746094 74.296875 209.394531 C 75.308594 207.738281 76.179688 206.679688 76.449219 206.46875 L 77.902344 205.308594 L 81.210938 206.960938 L 81.199219 207.261719 C 81.925781 207.785156 82.613281 208.308594 83.273438 208.835938 C 87.789062 212.511719 90.617188 216.441406 91.707031 220.558594 C 92.84375 225.015625 92.128906 230.835938 89.597656 237.886719 C 89.597656 237.902344 89.589844 237.914062 89.585938 237.929688 C 89.570312 237.964844 89.558594 238.003906 89.542969 238.039062 C 89.265625 238.738281 88.074219 241.546875 86.195312 242.195312 L 86.1875 242.195312 C 86.136719 242.203125 86.085938 242.203125 86.027344 242.203125 C 85.769531 242.207031 85.480469 242.183594 85.175781 242.109375 C 83.667969 241.769531 80.640625 240.574219 77.695312 238.273438 C 74.75 235.976562 71.890625 232.570312 70.71875 227.808594 C 69.046875 220.976562 71.4375 214.53125 73.632812 210.53125 Z M 76.328125 226.429688 C 77.597656 231.601562 81.707031 234.351562 84.285156 235.605469 C 86.800781 228.460938 86.699219 224.28125 86.117188 222.007812 C 85.542969 219.832031 83.816406 216.5625 78.960938 212.804688 C 77.257812 215.796875 75.042969 221.195312 76.328125 226.429688 Z M 76.328125 226.429688 " fill-opacity="1" fill-rule="nonzero"/></g></g></g></g><g clip-path="url(#8fbe23032c)"><g clip-path="url(#fc9dcf3dc3)"><g clip-path="url(#b87ff6a8d8)"><g clip-path="url(#46f20c252c)"><path fill="#2f3335" d="M 292.023438 141.199219 C 291.945312 141.183594 291.871094 141.171875 291.808594 141.160156 L 291.828125 141.160156 C 291.886719 141.171875 291.953125 141.183594 292.023438 141.199219 Z M 292.023438 141.199219 " fill-opacity="1" fill-rule="nonzero"/></g></g></g></g></svg>